<?xml version="1.0" encoding="UTF-8" standalone="no"?>
<!-- Created with Inkscape (http://www.inkscape.org/) -->

<svg
   version="1.1"
   id="svg840"
   xml:space="preserve"
   width="929.25238"
   height="67.847786"
   viewBox="0 0 929.25238 67.847786"
   sodipodi:docname="White Logo.svg"
   inkscape:version="1.1.1 (26b7af14f2, 2022-01-19)"
   xmlns:inkscape="http://www.inkscape.org/namespaces/inkscape"
   xmlns:sodipodi="http://sodipodi.sourceforge.net/DTD/sodipodi-0.dtd"
   xmlns="http://www.w3.org/2000/svg"
   xmlns:svg="http://www.w3.org/2000/svg"><defs
     id="defs844"><clipPath
       clipPathUnits="userSpaceOnUse"
       id="clipPath860"><path
         d="M 0,93.261 H 748.889 V 0 H 0 Z"
         id="path858" /></clipPath></defs><sodipodi:namedview
     id="namedview842"
     pagecolor="#ffffff"
     bordercolor="#666666"
     borderopacity="1.0"
     inkscape:pageshadow="2"
     inkscape:pageopacity="0.0"
     inkscape:pagecheckerboard="0"
     showgrid="false"
     fit-margin-top="0"
     fit-margin-left="0"
     fit-margin-right="0"
     fit-margin-bottom="0"
     inkscape:zoom="1.1351737"
     inkscape:cx="386.28449"
     inkscape:cy="23.344444"
     inkscape:window-width="2504"
     inkscape:window-height="1376"
     inkscape:window-x="56"
     inkscape:window-y="27"
     inkscape:window-maximized="1"
     inkscape:current-layer="g846" /><g
     id="g846"
     inkscape:groupmode="layer"
     inkscape:label="White Logo"
     transform="matrix(1.3333333,0,0,-1.3333333,-31.500266,95.206664)"><path
       d="m 252.37,20.67 h 1 v 50.735 h -1 z"
       style="fill:#ffffff;fill-opacity:1;fill-rule:nonzero;stroke:none"
       id="path848" /><g
       id="g850"
       transform="translate(297.6172,28.7558)"><path
         d="M 0,0 H -19.336 V 34.193 H 0 v -7.408 h -10.54 v -5.386 h 9.755 V 13.985 H -10.54 V 7.531 H 0 Z"
         style="fill:#ffffff;fill-opacity:1;fill-rule:nonzero;stroke:none"
         id="path852" /></g><g
       id="g854"><g
         id="g856"
         clip-path="url(#clipPath860)"><g
           id="g862"
           transform="translate(382.5601,55.8655)"><path
             d="m 0,0 c -2.088,0 -3.726,-0.902 -4.901,-2.702 -1.17,-1.805 -1.756,-4.284 -1.756,-7.447 0,-6.581 2.382,-9.874 7.149,-9.874 1.441,0 2.84,0.211 4.189,0.63 1.346,0.421 2.706,0.93 4.071,1.525 v -7.815 c -2.716,-1.26 -5.789,-1.895 -9.217,-1.895 -4.918,0 -8.683,1.5 -11.303,4.493 -2.62,2.991 -3.936,7.324 -3.936,12.984 0,3.534 0.639,6.646 1.908,9.322 1.263,2.691 3.098,4.754 5.477,6.197 2.384,1.44 5.186,2.159 8.41,2.159 3.518,0 6.884,-0.806 10.088,-2.413 L 7.481,-2.105 C 6.288,-1.513 5.079,-1.017 3.877,-0.605 2.672,-0.208 1.383,0 0,0"
             style="fill:#ffffff;fill-opacity:1;fill-rule:nonzero;stroke:none"
             id="path864" /></g><g
           id="g866"
           transform="translate(430.6771,28.7558)"><path
             d="M 0,0 H -19.334 V 34.193 H 0 v -7.408 h -10.534 v -5.386 h 9.756 v -7.414 h -9.756 V 7.531 H 0 Z"
             style="fill:#ffffff;fill-opacity:1;fill-rule:nonzero;stroke:none"
             id="path868" /></g><g
           id="g870"
           transform="translate(450.0613,28.7558)"><path
             d="M 0,0 V 34.193 H 8.805 V 7.467 H 21.344 V 0 Z"
             style="fill:#ffffff;fill-opacity:1;fill-rule:nonzero;stroke:none"
             id="path872" /></g><g
           id="g874"
           transform="translate(490.2943,28.7558)"><path
             d="M 0,0 V 34.193 H 8.796 V 7.467 H 21.335 V 0 Z"
             style="fill:#ffffff;fill-opacity:1;fill-rule:nonzero;stroke:none"
             id="path876" /></g><g
           id="g878"
           transform="translate(549.8593,28.7558)"><path
             d="M 0,0 H -19.336 V 34.193 H 0 v -7.408 h -10.54 v -5.386 h 9.755 V 13.985 H -10.54 V 7.531 H 0 Z"
             style="fill:#ffffff;fill-opacity:1;fill-rule:nonzero;stroke:none"
             id="path880" /></g><g
           id="g882"
           transform="translate(578.0456,41.2013)"><path
             d="M 0,0 V -12.446 H -8.807 V 21.75 H 1.869 c 8.848,0 13.27,-3.367 13.27,-10.108 0,-3.959 -1.841,-7.021 -5.521,-9.189 l 9.487,-14.899 H 9.13 L 2.226,0 Z m 0,6.952 h 1.64 c 3.082,0 4.621,1.424 4.621,4.278 0,2.351 -1.509,3.528 -4.525,3.528 H 0 Z"
             style="fill:#ffffff;fill-opacity:1;fill-rule:nonzero;stroke:none"
             id="path884" /></g><g
           id="g886"
           transform="translate(633.7723,28.7558)"><path
             d="M 0,0 -1.598,6.414 H -12.187 L -13.831,0 h -9.666 l 10.623,34.342 H -1.129 L 9.625,0 Z M -3.428,13.985 -4.825,19.6 c -0.334,1.247 -0.726,2.862 -1.197,4.847 -0.47,1.972 -0.775,3.394 -0.925,4.248 -0.136,-0.786 -0.39,-2.1 -0.791,-3.921 -0.393,-1.829 -1.27,-5.426 -2.61,-10.789 z"
             style="fill:#ffffff;fill-opacity:1;fill-rule:nonzero;stroke:none"
             id="path888" /></g><g
           id="g890"
           transform="translate(674.963,28.7558)"><path
             d="m 0,0 h -8.795 v 26.643 h -7.955 v 7.55 H 7.928 v -7.55 H 0 Z"
             style="fill:#ffffff;fill-opacity:1;fill-rule:nonzero;stroke:none"
             id="path892" /></g><g
           id="g894"
           transform="translate(720.5645,28.7558)"><path
             d="M 0,0 H -19.336 V 34.193 H 0 v -7.408 h -10.534 v -5.386 h 9.76 v -7.414 h -9.76 V 7.531 H 0 Z"
             style="fill:#ffffff;fill-opacity:1;fill-rule:nonzero;stroke:none"
             id="path896" /></g><g
           id="g898"
           transform="translate(327.6704,49.9598)"><path
             d="m 0,0 c 0.241,2.775 -8.397,12.833 -8.054,15.535 0.193,1.552 6.3,4.754 7.761,4.184 C 1.282,19.132 5.267,4.976 6.579,4.875 9.267,4.639 20.154,21.381 23.305,21.232 25.457,21.127 30.184,18.495 30.2,15.599 30.209,12.998 10.93,-0.38 10.467,-3.231 c -0.772,-4.665 11.986,-18.51 11.986,-20.82 0,-2.597 -8.39,-6.284 -10.025,-5.193 -3.38,2.257 -8.666,19.684 -9.446,19.876 -2.597,0.641 -11.404,-13.946 -13.318,-14.397 -1.707,-0.394 -6.527,3.627 -6.527,5.262 0,3.479 16.57,15.105 16.863,18.503"
             style="fill:#ffffff;fill-opacity:1;fill-rule:nonzero;stroke:none"
             id="path900" /></g><g
           id="g902"
           transform="translate(116.0822,46.7115)"><path
             d="M 0,0 C 6.426,2.136 7.592,7.53 7.576,11.927 7.565,18.642 2.825,24.448 -11.201,24.448 l -26.18,0.004 v -50.445 h 26.111 c 14.111,0 19.303,7.244 19.303,14.501 C 8.033,-2.706 0,0 0,0 m -24.957,13.477 h 17.558 0.069 l 0.064,-0.012 c 1.989,-0.353 3.437,-2.046 3.437,-4.029 0,-2.031 -1.551,-3.945 -3.602,-4.223 L -24.945,5.184 Z m 16.78,-27.713 h -16.78 v 8.445 h 17.142 0.047 l 0.04,-0.005 c 2.139,-0.247 3.758,-2.023 3.758,-4.136 0,-2.302 -1.917,-4.272 -4.207,-4.304 M 66.657,24.5 h 44.24 L 110.874,13.492 H 78.949 L 78.981,5.361 H 107.76 V -5.706 H 78.981 v -8.799 h 31.928 L 110.9,-26.042 H 66.657 Z M 40.922,24.46 H 14.168 v -50.461 h 12.285 v 20.418 c 0,0 13.528,0.013 13.53,0.013 3.875,-0.058 6.889,-3.232 6.889,-7.147 v -13.24 l 12.025,0.003 -0.023,16.286 c 0,7.548 -7.289,9.776 -7.289,9.776 0,0 7.452,2.227 7.452,11.147 0,10.914 -9.377,13.205 -18.115,13.205 M 47.627,8.805 C 47.408,7.146 45.75,5.345 43.679,5.345 L 26.411,5.34 v 8.079 h 17.274 c 2.065,0 3.68,-1.519 3.942,-3.513 z m -92.572,-22.667 -0.043,-12.146 h -0.398 c 0,0 -15.098,0.013 -15.098,0.017 0,0 -4.054,0.085 -4.07,0.085 -7.552,0.423 -11.297,1.704 -13.726,2.773 -7.191,3.405 -12.206,9.737 -13.764,17.388 -0.277,1.634 -0.413,3.337 -0.413,5.054 0,5.455 1.721,10.659 4.974,15.041 2.557,3.442 5.978,6.21 9.91,8.013 4.094,1.674 8.092,1.915 10.503,2.063 l 21.657,0.039 0.404,0.001 -0.04,-11.475 -0.4,0.005 c -0.205,0.002 -19.338,0.22 -22.839,-0.24 -7.355,-0.962 -12.103,-6.088 -12.103,-13.053 0,-5.587 3.274,-12.431 12.512,-13.336 5.737,-0.559 22.354,-0.238 22.53,-0.234 z"
             style="fill:#ffffff;fill-opacity:1;fill-rule:nonzero;stroke:none"
             id="path904" /></g></g></g></g></svg>
